<svg width="60" height="90" viewBox="0 0 60 90" fill="none" xmlns="http://www.w3.org/2000/svg">
<g clip-path="url(#clip0_2676_985)">
<path d="M29.7979 10.8727C24.8426 10.8727 20.1772 12.0852 16.0653 14.2334C16.5925 20.2299 17.7522 27.2938 20.1772 34.0811C21.4687 37.7053 23.2084 41.066 25.4093 43.9259C26.7931 45.7314 28.1901 46.5617 30.1406 46.5617C32.0911 46.5617 33.4222 45.705 34.8455 43.9259C39.0364 38.6542 40.8156 32.0779 41.949 27.7551C42.0149 27.4915 42.094 27.3861 42.239 27.3861C42.3839 27.3861 42.5816 27.4915 42.7134 27.7815C44.3608 31.3266 44.7035 37.3495 43.491 42.2785C41.5141 50.3177 37.3363 57.6189 31.3135 62.6665C30.9313 62.9828 30.5755 63.141 30.1406 63.141C29.7057 63.141 29.3498 62.9828 28.9676 62.6533C24.3549 58.805 20.5725 53.7443 18.0026 47.9059C14.4575 39.9721 12.3752 27.3729 12.586 16.3684C4.96851 21.7586 0 30.6282 0 40.6706C0 57.1313 13.3372 70.4685 29.7979 70.4685C46.2586 70.4685 59.5958 57.1313 59.5958 40.6706C59.5958 24.2099 46.2586 10.8727 29.7979 10.8727ZM15.7754 0.250355C15.7885 0.105385 15.7226 0.03949 15.604 -4.72432e-05C15.4986 -0.0264054 15.3932 0.03949 15.3405 0.144923C13.5481 4.21726 12.6783 10.0161 12.5597 16.3552C13.6667 15.5645 14.8396 14.8528 16.0521 14.2202C15.4722 7.70972 15.6436 2.45126 15.7622 0.250355H15.7754Z" fill="#FF4242"/>
<path d="M6.29857 89.7764L2.6875 79.7734H4.71708L7.19475 86.877H7.23428L9.63288 79.7734H11.6361L8.06457 89.7764H6.31175H6.29857Z" fill="#FF4242"/>
<path d="M12.8496 89.7764V79.7734H19.1756V81.5526H14.7738V83.7931H18.7802V85.5063H14.7738V87.984H19.1756V89.7764H12.8496Z" fill="#FF4242"/>
<path d="M21.0996 89.7764V79.7734H23.0238L26.6875 86.3366H26.7139V79.7734H28.6512V89.7764H26.7534L23.0501 83.2132H23.0238V89.7764H21.0996Z" fill="#FF4242"/>
<path d="M33.5017 89.7764L29.8906 79.7734H31.9202L34.3979 86.877H34.4374L36.836 79.7734H38.8392L35.2677 89.7764H33.5149H33.5017Z" fill="#FF4242"/>
<path d="M40.0371 89.7764V79.7734H46.3631V81.5526H41.9613V83.7931H45.9677V85.5063H41.9613V87.984H46.3631V89.7764H40.0371Z" fill="#FF4242"/>
<path d="M53.6786 89.6972C53.1778 89.8949 52.6375 90.0003 52.0576 90.0003C51.4777 90.0003 50.9505 89.8949 50.4366 89.6972C49.9358 89.4995 49.4745 89.1964 49.0528 88.7879C48.6442 88.3793 48.3147 87.8258 48.0643 87.1273C47.8271 86.4288 47.6953 85.6117 47.6953 84.6892C47.6953 83.8589 47.8139 83.1077 48.0643 82.4487C48.3016 81.7766 48.631 81.2362 49.0528 80.8277C49.4745 80.4191 49.9358 80.1028 50.4366 79.8788C50.9505 79.6679 51.4777 79.5625 52.0444 79.5625C52.6111 79.5625 53.1383 79.6679 53.6523 79.8788C54.1662 80.0897 54.6275 80.406 55.0361 80.8277C55.4446 81.2494 55.7741 81.7766 56.0245 82.4487C56.2617 83.1209 56.3935 83.8589 56.3935 84.6892C56.3935 85.6117 56.2749 86.4288 56.0245 87.1273C55.7873 87.8258 55.4578 88.3793 55.0361 88.7879C54.6275 89.1964 54.1662 89.4995 53.6523 89.6972H53.6786ZM50.3838 87.3777C50.8188 87.9444 51.3855 88.2343 52.0708 88.2343C52.7561 88.2343 53.3228 87.9576 53.7577 87.4041C54.1926 86.8505 54.4166 85.9544 54.4166 84.7155C54.4166 83.6348 54.1926 82.8046 53.7445 82.2247C53.2964 81.658 52.7429 81.368 52.084 81.368C51.425 81.368 50.8583 81.658 50.4102 82.2247C49.9621 82.7914 49.7381 83.6217 49.7381 84.7155C49.7381 85.928 49.9621 86.8242 50.397 87.3909L50.3838 87.3777Z" fill="#FF4242"/>
</g>
<defs>
<clipPath id="clip0_2676_985">
<rect width="59.5958" height="90" fill="white"/>
</clipPath>
</defs>
</svg>
